<svg width="17" height="18" viewBox="0 0 17 18" fill="none" xmlns="http://www.w3.org/2000/svg">
<path fill-rule="evenodd" clip-rule="evenodd" d="M0.125 11.75V12.4375C0.125 15.0937 2.28134 17.25 4.9375 17.25H11.8125C14.4687 17.25 16.625 15.0937 16.625 12.4375V5.5625C16.625 2.90634 14.4687 0.75 11.8125 0.75H4.9375C2.28134 0.75 0.125 2.90634 0.125 5.5625V9C0.125 9.3795 0.433 9.6875 0.8125 9.6875C1.192 9.6875 1.5 9.3795 1.5 9V5.5625C1.5 3.66534 3.04034 2.125 4.9375 2.125H11.8125C13.7097 2.125 15.25 3.66534 15.25 5.5625V12.4375C15.25 14.3347 13.7097 15.875 11.8125 15.875H4.9375C3.04034 15.875 1.5 14.3347 1.5 12.4375V11.75C1.5 11.3705 1.192 11.0625 0.8125 11.0625C0.433 11.0625 0.125 11.3705 0.125 11.75Z" fill="#4F8FEC"/>
</svg>
